<svg width="635" height="149" viewBox="0 0 635 149" fill="none" xmlns="http://www.w3.org/2000/svg">
<path d="M24.34 3.23999L51.26 46.74C51.46 47.06 51.92 47.05 52.11 46.74L78.75 3.25C78.84 3.1 79 3.01001 79.18 3.01001H101.9C102.18 3.01001 102.4 3.23001 102.4 3.51001V100.5C102.4 100.78 102.18 101 101.9 101H81.4C81.12 101 80.9 100.78 80.9 100.5V36.37H79.9C79.73 36.37 79.56 36.46 79.47 36.61L57.05 73.41C56.96 73.56 56.8 73.65 56.62 73.65H45.83C45.66 73.65 45.49 73.56 45.4 73.41L22.98 36.61C22.89 36.46 22.73 36.37 22.55 36.37H21.54V100.5C21.54 100.78 21.32 101 21.04 101H0.700012C0.420012 101 0.200012 100.78 0.200012 100.5V3.51001C0.200012 3.23001 0.420012 3.01001 0.700012 3.01001H23.92C24.09 3.01001 24.25 3.09999 24.34 3.23999Z" fill="black"/>
<path d="M146.96 3.01001C147.24 3.01001 147.46 3.23001 147.46 3.51001V57.57C147.46 65.62 149.36 71.91 153.17 76.46C156.98 81.01 162.48 83.28 169.67 83.28C177 83.28 182.55 81.11 186.31 76.78C190.07 72.45 191.95 66.14 191.95 57.85V3.5C191.95 3.22 192.17 3 192.45 3H213.52C213.8 3 214.02 3.22 214.02 3.5V57.42C214.02 71.37 210.16 82.46 202.45 90.7C194.74 98.94 183.81 103.06 169.67 103.06C155.58 103.06 144.67 99.02 136.96 90.95C129.25 82.88 125.39 71.85 125.39 57.85V3.5C125.39 3.22 125.61 3 125.89 3H146.96V3.01001Z" fill="black"/>
<path d="M303.01 28.59C302.85 28.82 302.54 28.87 302.32 28.71C294.64 23.19 285.47 20.44 274.8 20.44C262.9 20.44 256.95 23.65 256.95 30.08C256.95 32.89 257.96 35.01 259.99 36.44C262.01 37.87 265.31 38.87 269.88 39.44L284.16 41.3C294.82 42.73 302.84 46 308.19 51.12C313.55 56.24 316.23 62.96 316.23 71.3C316.23 81.06 312.54 88.8 305.16 94.51C297.78 100.22 287.33 103.08 273.81 103.08C265.48 103.08 258.01 102.22 251.42 100.51C244.96 98.83 238.7 96.01 232.62 92.05C232.4 91.91 232.33 91.63 232.45 91.4L241.21 74.28C241.34 74.02 241.66 73.94 241.91 74.09C251.93 80.24 262.99 83.31 275.09 83.31C281.38 83.31 286.15 82.36 289.41 80.45C292.67 78.55 294.3 75.9 294.3 72.52C294.3 69.62 293.2 67.33 291.01 65.66C288.82 63.99 285.27 62.85 280.37 62.23L265.3 60.37C245.21 57.75 235.16 47.99 235.16 31.09C235.16 21.57 238.71 14.16 245.8 8.88C252.89 3.6 262.42 0.950012 274.37 0.950012C290.46 0.950012 303.41 4.98999 313.22 13.08C313.42 13.25 313.46 13.54 313.31 13.76L303.01 28.59Z" fill="black"/>
<path d="M356.85 3.51001V100.5C356.85 100.78 356.63 101 356.35 101H335.28C335 101 334.78 100.78 334.78 100.5V3.51001C334.78 3.23001 335 3.01001 335.28 3.01001H356.35C356.63 3.01001 356.85 3.23001 356.85 3.51001Z" fill="black"/>
<path d="M455.37 29.94C455.2 30.17 454.87 30.2 454.66 30.01C447.59 24 438.86 21 428.49 21C419.01 21 411.42 23.88 405.71 29.64C400 35.4 397.14 42.85 397.14 51.99C397.14 61.23 400.02 68.7 405.78 74.41C411.54 80.12 419.02 82.98 428.2 82.98C439.16 82.98 448.53 79.39 456.31 72.2C456.52 72.01 456.85 72.03 457.03 72.25L468.83 86.83C469 87.04 468.97 87.34 468.78 87.52C457.6 97.87 443.67 103.05 426.99 103.05C416.9 103.05 407.95 100.98 400.14 96.84C392.33 92.7 386.25 86.77 381.89 79.06C377.53 71.35 375.36 62.42 375.36 52.28C375.36 45.24 376.62 38.59 379.15 32.36C381.67 26.12 385.22 20.68 389.79 16.04C394.36 11.4 400.06 7.72001 406.89 5.01001C413.72 2.30001 421.21 0.940002 429.35 0.940002C444.22 0.940002 456.72 5.34 466.84 14.13C467.04 14.3 467.07 14.61 466.91 14.82L455.37 29.94Z" fill="black"/>
<path d="M507.12 3.01001C507.4 3.01001 507.62 3.23001 507.62 3.51001V57.57C507.62 65.62 509.52 71.91 513.33 76.46C517.14 81.01 522.64 83.28 529.83 83.28C537.16 83.28 542.71 81.11 546.47 76.78C550.23 72.45 552.11 66.14 552.11 57.85V3.5C552.11 3.22 552.33 3 552.61 3H573.68C573.96 3 574.18 3.22 574.18 3.5V57.42C574.18 71.37 570.32 82.46 562.61 90.7C554.9 98.94 543.97 103.06 529.83 103.06C515.74 103.06 504.83 99.02 497.12 90.95C489.41 82.88 485.55 71.85 485.55 57.85V3.5C485.55 3.22 485.77 3 486.05 3H507.12V3.01001Z" fill="black"/>
<path d="M595.67 3.01001C607.38 3.01001 616.82 6.24 623.99 12.69C631.16 19.14 634.74 27.7 634.74 38.36C634.74 45.69 632.93 52.11 629.31 57.61C625.69 63.11 620.81 67.25 614.67 70.04C608.53 72.83 601.6 74.22 593.89 74.22H574.53C574.25 74.22 568.74 74.12 568.74 74.4L556.74 95.4C556.74 95.4 556.02 95.4 555.74 95.4L550.74 98.4C550.46 98.4 549.37 96.29 550.74 98.4L552.11 3.51999C552.11 3.23999 552.33 3.01999 552.61 3.01999H595.67V3.01001ZM574.03 50.61C574.03 52.92 575.9 54.79 578.21 54.79H593.89C599.7 54.79 604.28 53.34 607.64 50.43C611 47.53 612.67 43.57 612.67 38.58C612.67 33.58 611.15 29.66 608.1 26.83C605.05 24 600.62 22.58 594.82 22.58H578.2C575.89 22.58 574.02 24.45 574.02 26.76V50.61H574.03Z" fill="black"/>
<path d="M61.0745 138.025V115.441H70.308C72.7389 115.441 74.6698 115.99 76.1009 117.088C77.532 118.186 78.2475 119.637 78.2475 121.44C78.2475 122.812 77.8408 123.876 77.0272 124.631C76.2136 125.376 75.1697 125.88 73.8955 126.145C74.7286 126.263 75.5373 126.557 76.3215 127.027C77.1154 127.498 77.7721 128.145 78.2917 128.968C78.8112 129.782 79.0709 130.781 79.0709 131.967C79.0709 133.124 78.7768 134.158 78.1887 135.07C77.6006 135.981 76.7576 136.702 75.6598 137.231C74.562 137.76 73.2486 138.025 71.7195 138.025H61.0745ZM64.368 134.849H71.7195C72.9153 134.849 73.8514 134.565 74.5277 133.996C75.204 133.428 75.5422 132.654 75.5422 131.673C75.5422 130.507 75.204 129.59 74.5277 128.924C73.8514 128.248 72.9153 127.909 71.7195 127.909H64.368V134.849ZM64.368 124.91H70.308C71.2392 124.91 72.038 124.783 72.7045 124.528C73.3711 124.263 73.8808 123.891 74.2336 123.41C74.5963 122.92 74.7777 122.342 74.7777 121.675C74.7777 120.725 74.3807 119.98 73.5867 119.441C72.7928 118.892 71.6998 118.617 70.308 118.617H64.368V124.91ZM90.9692 138.554C89.5382 138.554 88.2394 138.285 87.073 137.746C85.9065 137.197 84.9803 136.408 84.2941 135.378C83.608 134.339 83.2649 133.085 83.2649 131.615C83.2649 130.321 83.5198 129.272 84.0295 128.468C84.5392 127.655 85.2204 127.017 86.0732 126.557C86.9259 126.096 87.8669 125.753 88.8961 125.528C89.9351 125.292 90.979 125.106 92.0278 124.969C93.4001 124.792 94.5126 124.66 95.3654 124.572C96.228 124.474 96.8553 124.312 97.2474 124.087C97.6493 123.861 97.8502 123.469 97.8502 122.91V122.793C97.8502 121.342 97.4532 120.215 96.6593 119.411C95.8751 118.607 94.6842 118.205 93.0865 118.205C91.4299 118.205 90.1312 118.568 89.1902 119.293C88.2492 120.019 87.5876 120.793 87.2053 121.617L83.9118 120.44C84.5 119.068 85.2841 118 86.2643 117.235C87.2543 116.461 88.3325 115.922 89.4989 115.618C90.6752 115.304 91.8318 115.147 92.9688 115.147C93.6942 115.147 94.5273 115.235 95.4683 115.412C96.4191 115.579 97.3356 115.927 98.2178 116.456C99.1097 116.985 99.8498 117.784 100.438 118.852C101.026 119.921 101.32 121.352 101.32 123.146V138.025H97.8502V134.967H97.6738C97.4385 135.457 97.0464 135.981 96.4975 136.54C95.9486 137.099 95.2184 137.574 94.3068 137.966C93.3952 138.358 92.2827 138.554 90.9692 138.554ZM91.4985 135.437C92.8708 135.437 94.0274 135.168 94.9684 134.629C95.9192 134.09 96.6348 133.394 97.1151 132.541C97.6052 131.688 97.8502 130.791 97.8502 129.85V126.674C97.7032 126.851 97.3797 127.013 96.8798 127.16C96.3897 127.297 95.8212 127.419 95.1743 127.527C94.5371 127.625 93.9147 127.713 93.307 127.792C92.7091 127.86 92.2239 127.919 91.8514 127.968C90.9496 128.086 90.1067 128.277 89.3225 128.542C88.5482 128.796 87.9208 129.184 87.4405 129.703C86.97 130.213 86.7348 130.909 86.7348 131.791C86.7348 132.997 87.1808 133.908 88.0728 134.526C88.9745 135.133 90.1165 135.437 91.4985 135.437ZM107.653 115.441H111.123V134.79H119.651V115.441H123.121V134.79H131.649V115.441H135.118V138.025H107.653V115.441ZM148.101 138.554C146.67 138.554 145.371 138.285 144.205 137.746C143.038 137.197 142.112 136.408 141.426 135.378C140.74 134.339 140.397 133.085 140.397 131.615C140.397 130.321 140.652 129.272 141.161 128.468C141.671 127.655 142.352 127.017 143.205 126.557C144.058 126.096 144.999 125.753 146.028 125.528C147.067 125.292 148.111 125.106 149.16 124.969C150.532 124.792 151.644 124.66 152.497 124.572C153.36 124.474 153.987 124.312 154.379 124.087C154.781 123.861 154.982 123.469 154.982 122.91V122.793C154.982 121.342 154.585 120.215 153.791 119.411C153.007 118.607 151.816 118.205 150.218 118.205C148.562 118.205 147.263 118.568 146.322 119.293C145.381 120.019 144.719 120.793 144.337 121.617L141.044 120.44C141.632 119.068 142.416 118 143.396 117.235C144.386 116.461 145.464 115.922 146.631 115.618C147.807 115.304 148.964 115.147 150.101 115.147C150.826 115.147 151.659 115.235 152.6 115.412C153.551 115.579 154.467 115.927 155.35 116.456C156.242 116.985 156.982 117.784 157.57 118.852C158.158 119.921 158.452 121.352 158.452 123.146V138.025H154.982V134.967H154.806C154.57 135.457 154.178 135.981 153.629 136.54C153.08 137.099 152.35 137.574 151.439 137.966C150.527 138.358 149.415 138.554 148.101 138.554ZM148.63 135.437C150.003 135.437 151.159 135.168 152.1 134.629C153.051 134.09 153.767 133.394 154.247 132.541C154.737 131.688 154.982 130.791 154.982 129.85V126.674C154.835 126.851 154.512 127.013 154.012 127.16C153.522 127.297 152.953 127.419 152.306 127.527C151.669 127.625 151.047 127.713 150.439 127.792C149.841 127.86 149.356 127.919 148.983 127.968C148.081 128.086 147.239 128.277 146.454 128.542C145.68 128.796 145.053 129.184 144.572 129.703C144.102 130.213 143.867 130.909 143.867 131.791C143.867 132.997 144.313 133.908 145.205 134.526C146.106 135.133 147.248 135.437 148.63 135.437ZM188.78 133.32L196.661 115.441H199.955L190.192 138.025H187.369L177.783 115.441H181.017L188.78 133.32ZM179.9 115.441V138.025H176.43V115.441H179.9ZM197.661 138.025V115.441H201.131V138.025H197.661ZM208.909 146.494C208.321 146.494 207.796 146.445 207.335 146.347C206.875 146.259 206.556 146.17 206.38 146.082L207.262 143.024C208.105 143.24 208.85 143.318 209.497 143.259C210.144 143.2 210.717 142.911 211.217 142.392C211.727 141.882 212.192 141.054 212.614 139.907L213.261 138.143L204.909 115.441H208.673L214.907 133.438H215.143L221.377 115.441H225.141L215.554 141.318C215.123 142.485 214.589 143.45 213.952 144.215C213.315 144.989 212.575 145.563 211.732 145.935C210.898 146.308 209.957 146.494 208.909 146.494ZM228.309 132.261H232.014C232.093 133.281 232.553 134.055 233.396 134.585C234.249 135.114 235.357 135.378 236.719 135.378C238.111 135.378 239.302 135.094 240.292 134.526C241.282 133.947 241.777 133.016 241.777 131.732C241.777 130.977 241.591 130.321 241.218 129.762C240.846 129.193 240.321 128.752 239.645 128.439C238.969 128.125 238.17 127.968 237.249 127.968H233.367V124.851H237.249C238.631 124.851 239.65 124.538 240.307 123.91C240.973 123.283 241.307 122.499 241.307 121.558C241.307 120.548 240.949 119.739 240.233 119.132C239.518 118.514 238.503 118.205 237.19 118.205C235.866 118.205 234.764 118.504 233.882 119.102C232.999 119.69 232.534 120.45 232.485 121.381H228.838C228.878 120.166 229.25 119.093 229.956 118.161C230.662 117.22 231.622 116.485 232.838 115.956C234.053 115.417 235.445 115.147 237.013 115.147C238.601 115.147 239.978 115.427 241.145 115.985C242.321 116.534 243.228 117.284 243.865 118.235C244.512 119.176 244.835 120.244 244.835 121.44C244.835 122.714 244.477 123.744 243.762 124.528C243.046 125.312 242.149 125.871 241.071 126.204V126.439C241.924 126.498 242.664 126.772 243.291 127.262C243.929 127.743 244.424 128.375 244.776 129.159C245.129 129.933 245.306 130.791 245.306 131.732C245.306 133.104 244.938 134.3 244.203 135.32C243.468 136.329 242.458 137.113 241.174 137.672C239.89 138.221 238.425 138.495 236.778 138.495C235.18 138.495 233.749 138.236 232.485 137.716C231.22 137.187 230.216 136.457 229.471 135.525C228.736 134.585 228.348 133.496 228.309 132.261ZM253.65 132.908L264.53 115.441H268.529V138.025H265.059V120.558L254.238 138.025H250.18V115.441H253.65V132.908ZM292.293 115.441V138.025H288.823V115.441H292.293ZM290.94 126.204V129.438C290.156 129.733 289.376 129.992 288.602 130.218C287.828 130.433 287.014 130.605 286.161 130.732C285.309 130.85 284.373 130.909 283.353 130.909C280.795 130.909 278.741 130.218 277.193 128.836C275.654 127.454 274.884 125.38 274.884 122.616V115.383H278.354V122.616C278.354 123.773 278.575 124.724 279.016 125.469C279.457 126.214 280.055 126.767 280.81 127.13C281.564 127.493 282.412 127.674 283.353 127.674C284.823 127.674 286.152 127.542 287.338 127.277C288.533 127.003 289.734 126.645 290.94 126.204ZM313.773 125.145V128.38H301.305V125.145H313.773ZM302.129 115.441V138.025H298.659V115.441H302.129ZM316.42 115.441V138.025H312.95V115.441H316.42ZM329.403 138.554C327.972 138.554 326.673 138.285 325.506 137.746C324.34 137.197 323.414 136.408 322.728 135.378C322.041 134.339 321.698 133.085 321.698 131.615C321.698 130.321 321.953 129.272 322.463 128.468C322.973 127.655 323.654 127.017 324.507 126.557C325.359 126.096 326.3 125.753 327.33 125.528C328.369 125.292 329.412 125.106 330.461 124.969C331.834 124.792 332.946 124.66 333.799 124.572C334.661 124.474 335.289 124.312 335.681 124.087C336.083 123.861 336.284 123.469 336.284 122.91V122.793C336.284 121.342 335.887 120.215 335.093 119.411C334.309 118.607 333.118 118.205 331.52 118.205C329.863 118.205 328.565 118.568 327.624 119.293C326.683 120.019 326.021 120.793 325.639 121.617L322.345 120.44C322.933 119.068 323.718 118 324.698 117.235C325.688 116.461 326.766 115.922 327.932 115.618C329.109 115.304 330.265 115.147 331.402 115.147C332.128 115.147 332.961 115.235 333.902 115.412C334.853 115.579 335.769 115.927 336.651 116.456C337.543 116.985 338.283 117.784 338.871 118.852C339.459 119.921 339.754 121.352 339.754 123.146V138.025H336.284V134.967H336.107C335.872 135.457 335.48 135.981 334.931 136.54C334.382 137.099 333.652 137.574 332.74 137.966C331.829 138.358 330.716 138.554 329.403 138.554ZM329.932 135.437C331.304 135.437 332.461 135.168 333.402 134.629C334.353 134.09 335.068 133.394 335.549 132.541C336.039 131.688 336.284 130.791 336.284 129.85V126.674C336.137 126.851 335.813 127.013 335.313 127.16C334.823 127.297 334.255 127.419 333.608 127.527C332.971 127.625 332.348 127.713 331.74 127.792C331.143 127.86 330.657 127.919 330.285 127.968C329.383 128.086 328.54 128.277 327.756 128.542C326.982 128.796 326.354 129.184 325.874 129.703C325.403 130.213 325.168 130.909 325.168 131.791C325.168 132.997 325.614 133.908 326.506 134.526C327.408 135.133 328.55 135.437 329.932 135.437ZM357.732 138.025V115.441H361.201V125.263H363.495L371.611 115.441H376.081L366.965 126.321L376.198 138.025H371.729L364.318 128.498H361.201V138.025H357.732ZM386.615 138.554C385.184 138.554 383.886 138.285 382.719 137.746C381.553 137.197 380.626 136.408 379.94 135.378C379.254 134.339 378.911 133.085 378.911 131.615C378.911 130.321 379.166 129.272 379.676 128.468C380.185 127.655 380.867 127.017 381.719 126.557C382.572 126.096 383.513 125.753 384.542 125.528C385.581 125.292 386.625 125.106 387.674 124.969C389.046 124.792 390.159 124.66 391.012 124.572C391.874 124.474 392.501 124.312 392.894 124.087C393.295 123.861 393.496 123.469 393.496 122.91V122.793C393.496 121.342 393.099 120.215 392.305 119.411C391.521 118.607 390.33 118.205 388.733 118.205C387.076 118.205 385.777 118.568 384.836 119.293C383.895 120.019 383.234 120.793 382.851 121.617L379.558 120.44C380.146 119.068 380.93 118 381.91 117.235C382.9 116.461 383.979 115.922 385.145 115.618C386.321 115.304 387.478 115.147 388.615 115.147C389.34 115.147 390.174 115.235 391.114 115.412C392.065 115.579 392.982 115.927 393.864 116.456C394.756 116.985 395.496 117.784 396.084 118.852C396.672 119.921 396.966 121.352 396.966 123.146V138.025H393.496V134.967H393.32C393.085 135.457 392.693 135.981 392.144 136.54C391.595 137.099 390.865 137.574 389.953 137.966C389.041 138.358 387.929 138.554 386.615 138.554ZM387.145 135.437C388.517 135.437 389.674 135.168 390.615 134.629C391.565 134.09 392.281 133.394 392.761 132.541C393.251 131.688 393.496 130.791 393.496 129.85V126.674C393.349 126.851 393.026 127.013 392.526 127.16C392.036 127.297 391.467 127.419 390.82 127.527C390.183 127.625 389.561 127.713 388.953 127.792C388.355 127.86 387.87 127.919 387.498 127.968C386.596 128.086 385.753 128.277 384.969 128.542C384.194 128.796 383.567 129.184 383.087 129.703C382.616 130.213 382.381 130.909 382.381 131.791C382.381 132.997 382.827 133.908 383.719 134.526C384.621 135.133 385.763 135.437 387.145 135.437ZM403.3 138.025V115.441H412.533C414.964 115.441 416.895 115.99 418.326 117.088C419.757 118.186 420.473 119.637 420.473 121.44C420.473 122.812 420.066 123.876 419.252 124.631C418.439 125.376 417.395 125.88 416.12 126.145C416.954 126.263 417.762 126.557 418.546 127.027C419.34 127.498 419.997 128.145 420.517 128.968C421.036 129.782 421.296 130.781 421.296 131.967C421.296 133.124 421.002 134.158 420.414 135.07C419.826 135.981 418.983 136.702 417.885 137.231C416.787 137.76 415.474 138.025 413.944 138.025H403.3ZM406.593 134.849H413.944C415.14 134.849 416.076 134.565 416.753 133.996C417.429 133.428 417.767 132.654 417.767 131.673C417.767 130.507 417.429 129.59 416.753 128.924C416.076 128.248 415.14 127.909 413.944 127.909H406.593V134.849ZM406.593 124.91H412.533C413.464 124.91 414.263 124.783 414.93 124.528C415.596 124.263 416.106 123.891 416.459 123.41C416.821 122.92 417.003 122.342 417.003 121.675C417.003 120.725 416.606 119.98 415.812 119.441C415.018 118.892 413.925 118.617 412.533 118.617H406.593V124.91ZM429.607 107.913V110.56C429.607 111.364 429.46 112.221 429.166 113.133C428.881 114.035 428.46 114.912 427.901 115.765C427.352 116.608 426.686 117.343 425.902 117.97L424.02 116.441C424.637 115.559 425.171 114.642 425.622 113.692C426.083 112.731 426.313 111.707 426.313 110.619V107.913H429.607ZM446.361 138.025V118.617H440.362C439.009 118.617 437.946 118.931 437.171 119.558C436.397 120.185 436.01 121.048 436.01 122.146C436.01 123.224 436.358 124.072 437.054 124.689C437.759 125.307 438.725 125.616 439.95 125.616H447.243V128.85H439.95C438.421 128.85 437.103 128.581 435.995 128.042C434.888 127.503 434.035 126.733 433.437 125.733C432.839 124.724 432.54 123.528 432.54 122.146C432.54 120.754 432.854 119.558 433.481 118.558C434.108 117.559 435.005 116.789 436.172 116.25C437.348 115.711 438.745 115.441 440.362 115.441H449.654V138.025H446.361ZM431.305 138.025L437.715 126.792H441.479L435.069 138.025H431.305ZM456.024 146.494V115.441H459.376V119.029H459.788C460.043 118.637 460.396 118.137 460.847 117.529C461.307 116.912 461.964 116.363 462.817 115.882C463.679 115.392 464.846 115.147 466.316 115.147C468.218 115.147 469.894 115.623 471.345 116.573C472.795 117.524 473.927 118.872 474.741 120.617C475.555 122.361 475.961 124.42 475.961 126.792C475.961 129.184 475.555 131.257 474.741 133.011C473.927 134.756 472.8 136.109 471.359 137.069C469.918 138.02 468.257 138.495 466.375 138.495C464.924 138.495 463.763 138.255 462.89 137.775C462.018 137.285 461.347 136.731 460.876 136.114C460.406 135.486 460.043 134.967 459.788 134.555H459.494V146.494H456.024ZM459.435 126.733C459.435 128.439 459.685 129.943 460.185 131.247C460.685 132.541 461.415 133.555 462.376 134.29C463.336 135.016 464.513 135.378 465.905 135.378C467.355 135.378 468.566 134.996 469.536 134.232C470.516 133.457 471.251 132.418 471.742 131.115C472.241 129.801 472.491 128.341 472.491 126.733C472.491 125.145 472.246 123.714 471.756 122.44C471.276 121.156 470.546 120.141 469.566 119.396C468.595 118.642 467.375 118.264 465.905 118.264C464.493 118.264 463.307 118.622 462.346 119.338C461.386 120.043 460.66 121.033 460.17 122.308C459.68 123.572 459.435 125.047 459.435 126.733ZM496.369 125.145V128.38H483.901V125.145H496.369ZM484.724 115.441V138.025H481.254V115.441H484.724ZM499.015 115.441V138.025H495.546V115.441H499.015ZM518.938 138.025V118.617H512.939C511.586 118.617 510.523 118.931 509.749 119.558C508.974 120.185 508.587 121.048 508.587 122.146C508.587 123.224 508.935 124.072 509.631 124.689C510.337 125.307 511.302 125.616 512.527 125.616H519.82V128.85H512.527C510.998 128.85 509.68 128.581 508.572 128.042C507.465 127.503 506.612 126.733 506.014 125.733C505.416 124.724 505.117 123.528 505.117 122.146C505.117 120.754 505.431 119.558 506.058 118.558C506.685 117.559 507.582 116.789 508.749 116.25C509.925 115.711 511.322 115.441 512.939 115.441H522.231V138.025H518.938ZM503.882 138.025L510.293 126.792H514.057L507.646 138.025H503.882Z" fill="black"/>
</svg>
